<?xml version="1.0" encoding="UTF-8"?>
<svg id="Camada_1" data-name="Camada 1" xmlns="http://www.w3.org/2000/svg" viewBox="0 0 720 117">
  <defs>
    <style>
      .cls-1 {
        fill: #5f5d5b;
      }

      .cls-1, .cls-2 {
        stroke-width: 0px;
      }

      .cls-2 {
        fill: #f2f2f2;
      }
    </style>
  </defs>
  <rect class="cls-1" x="-640" y="-1243" width="2000" height="720" transform="translate(-523 -1243) rotate(90)"/>
  <g>
    <path class="cls-2" d="m292.87,23.33l-2.51,8.19c-.04.13-.11.23-.21.31-.11.08-.23.12-.37.12h-1.36c-.14,0-.27-.04-.38-.13-.11-.09-.18-.2-.2-.34l-1.42-5.86c-.05-.22-.09-.45-.13-.67-.04-.22-.09-.45-.15-.69h-.21c-.05.24-.1.47-.15.69-.05.22-.1.45-.15.67l-1.4,5.86c-.04.14-.11.26-.21.34-.11.09-.24.13-.39.13h-1.34c-.14,0-.27-.04-.37-.12-.11-.08-.18-.18-.21-.31l-2.51-8.19h1.56l1.79,6.35c.06.21.11.43.16.65.05.22.09.43.12.65h.23c.06-.21.11-.43.17-.65.05-.22.1-.43.15-.65l1.43-5.87c.02-.14.09-.26.19-.34.1-.09.23-.13.38-.13h1.36c.14,0,.26.04.36.13.1.09.17.21.2.36l1.42,5.86c.05.21.1.42.15.64.05.21.1.43.15.66h.23c.06-.22.11-.44.14-.65.04-.21.09-.42.16-.65l1.79-6.35h1.56Z"/>
    <path class="cls-2" d="m307.45,23.33l-2.51,8.19c-.04.13-.11.23-.21.31-.11.08-.23.12-.37.12h-1.36c-.14,0-.27-.04-.38-.13-.11-.09-.18-.2-.2-.34l-1.42-5.86c-.05-.22-.09-.45-.13-.67-.04-.22-.09-.45-.15-.69h-.21c-.05.24-.1.47-.15.69-.05.22-.1.45-.15.67l-1.4,5.86c-.04.14-.11.26-.21.34-.11.09-.24.13-.39.13h-1.34c-.14,0-.27-.04-.37-.12-.11-.08-.18-.18-.21-.31l-2.51-8.19h1.56l1.79,6.35c.06.21.11.43.16.65.05.22.09.43.12.65h.23c.06-.21.11-.43.17-.65.05-.22.1-.43.15-.65l1.43-5.87c.02-.14.09-.26.19-.34.1-.09.23-.13.38-.13h1.36c.14,0,.26.04.36.13.1.09.17.21.2.36l1.42,5.86c.05.21.1.42.15.64.05.21.1.43.15.66h.23c.06-.22.11-.44.14-.65.04-.21.09-.42.16-.65l1.79-6.35h1.56Z"/>
    <path class="cls-2" d="m322.02,23.33l-2.51,8.19c-.04.13-.11.23-.21.31-.11.08-.23.12-.37.12h-1.36c-.14,0-.27-.04-.38-.13-.11-.09-.18-.2-.2-.34l-1.42-5.86c-.05-.22-.09-.45-.13-.67-.04-.22-.09-.45-.15-.69h-.21c-.05.24-.1.47-.15.69-.05.22-.1.45-.15.67l-1.4,5.86c-.04.14-.11.26-.21.34-.11.09-.24.13-.39.13h-1.34c-.14,0-.27-.04-.37-.12-.11-.08-.18-.18-.21-.31l-2.51-8.19h1.56l1.79,6.35c.06.21.11.43.16.65.05.22.09.43.12.65h.23c.06-.21.11-.43.17-.65.05-.22.1-.43.15-.65l1.43-5.87c.02-.14.09-.26.19-.34.1-.09.23-.13.38-.13h1.36c.14,0,.26.04.36.13.1.09.17.21.2.36l1.42,5.86c.05.21.1.42.15.64.05.21.1.43.15.66h.23c.06-.22.11-.44.14-.65.04-.21.09-.42.16-.65l1.79-6.35h1.56Z"/>
    <path class="cls-2" d="m324.34,29.86c.21,0,.36.04.44.12.08.08.12.23.12.44v.96c0,.21-.04.36-.12.44-.08.08-.23.12-.44.12h-.5c-.2,0-.34-.04-.43-.12-.09-.08-.13-.23-.13-.44v-.96c0-.21.04-.36.13-.44.09-.08.23-.12.43-.12h.5Z"/>
    <path class="cls-2" d="m328.75,23.33l.11,1.65.16.26v6.71h-1.5v-8.62h1.24Zm3.61-.21c.73,0,1.29.2,1.68.59.39.4.59.99.6,1.78v6.46h-1.45v-6.03c0-.55-.11-.95-.34-1.18-.22-.23-.56-.34-1.01-.34-.29,0-.58.05-.86.14-.28.09-.58.25-.92.46-.34.21-.75.5-1.23.85l-.11-1.06c.62-.55,1.23-.97,1.82-1.25.59-.28,1.19-.42,1.8-.42Zm5.64,0c.74,0,1.31.2,1.71.6.4.4.59.99.59,1.77v6.46h-1.49v-6.03c-.01-.53-.12-.92-.32-1.16-.2-.24-.54-.36-1.03-.36-.31,0-.6.05-.88.15-.28.1-.58.26-.91.47s-.73.49-1.2.83l-.09-1.06c.62-.55,1.23-.97,1.82-1.25.59-.28,1.19-.42,1.79-.42Z"/>
    <path class="cls-2" d="m346.54,23.12c1.3,0,2.24.24,2.82.71.58.47.88,1.17.88,2.11.01.77-.15,1.37-.48,1.8-.33.43-.86.65-1.57.65h-5.02v-1.17h4.63c.39,0,.64-.13.76-.4.12-.27.18-.56.18-.88-.01-.55-.18-.95-.5-1.19-.32-.24-.86-.35-1.63-.35-.63,0-1.12.09-1.48.27-.36.18-.61.5-.76.96-.15.45-.22,1.09-.22,1.9,0,.92.09,1.62.27,2.11.18.48.47.81.88.99.4.18.93.27,1.59.27.46,0,.96-.02,1.51-.06s1.04-.09,1.48-.15l.16,1.01c-.27.11-.6.2-1,.27-.4.07-.8.12-1.22.16-.42.04-.79.05-1.12.05-.99,0-1.79-.15-2.39-.45s-1.04-.78-1.32-1.45c-.28-.67-.42-1.55-.42-2.64s.14-2.03.42-2.68c.28-.65.71-1.12,1.29-1.4.58-.28,1.34-.42,2.26-.42Z"/>
    <path class="cls-2" d="m356.18,23.12c.26,0,.55.01.87.04s.65.06.98.12c.34.06.65.14.93.25l-.19.97c-.39-.04-.8-.06-1.23-.08s-.8-.03-1.11-.03c-.68,0-1.23.09-1.63.28-.4.19-.69.52-.87.99-.18.47-.27,1.13-.27,1.96s.09,1.5.27,1.97c.18.48.47.81.87,1,.4.19.94.28,1.63.28.18,0,.41,0,.69-.02s.59-.03.91-.05c.32-.02.63-.06.93-.11l.16,1.01c-.44.15-.91.26-1.42.34-.51.07-1.02.11-1.53.11-.99,0-1.79-.15-2.39-.44-.6-.29-1.04-.77-1.3-1.43-.27-.66-.4-1.54-.4-2.65s.14-1.99.41-2.65c.27-.66.71-1.14,1.31-1.42.6-.29,1.4-.43,2.39-.43Z"/>
    <path class="cls-2" d="m367.47,26.64l-.02,1.13-4.12.02c-.41.01-.7.12-.87.33-.17.21-.25.49-.25.86v.55c0,.45.11.78.32.98.21.21.55.31,1.03.31.33,0,.7-.06,1.12-.19.42-.12.84-.32,1.26-.57.42-.26.81-.59,1.17-.99v1.11c-.13.17-.32.36-.56.58-.24.22-.53.43-.87.64-.34.21-.71.38-1.11.51-.41.13-.85.2-1.32.2-.51,0-.96-.09-1.34-.27s-.69-.45-.91-.81c-.22-.36-.33-.8-.33-1.32v-.94c0-.67.21-1.19.63-1.57.42-.37,1-.56,1.76-.56h4.41Zm-2.25-3.52c.64,0,1.18.08,1.62.26s.78.46,1,.86c.22.4.34.95.34,1.65v6.07h-1.19l-.23-1.88-.11-.19v-4c0-.53-.12-.91-.36-1.14-.24-.23-.7-.34-1.39-.34-.45,0-1.01.02-1.69.07-.68.05-1.35.1-2.01.16l-.14-1.11c.4-.07.84-.14,1.32-.19s.96-.11,1.46-.14c.5-.04.96-.05,1.38-.05Z"/>
    <path class="cls-2" d="m372.39,19.56l-.02,10.01c0,.38.1.66.31.86.21.19.5.29.88.29h.83l.18,1.15c-.11.05-.26.09-.45.12-.19.04-.4.06-.6.08s-.38.03-.52.03c-.64,0-1.15-.19-1.53-.57-.38-.38-.58-.92-.58-1.63v-10.35h1.5Z"/>
    <path class="cls-2" d="m379.76,23.12c.99,0,1.78.15,2.38.44.6.29,1.02.78,1.28,1.44.26.67.39,1.55.39,2.64s-.13,1.98-.39,2.64c-.26.67-.69,1.15-1.28,1.44-.6.29-1.39.44-2.38.44s-1.77-.15-2.36-.44c-.6-.29-1.03-.78-1.29-1.44-.27-.67-.4-1.55-.4-2.64s.13-1.98.4-2.64.7-1.15,1.29-1.44c.6-.29,1.38-.44,2.36-.44Zm0,1.27c-.63,0-1.12.1-1.48.29-.36.19-.62.53-.77,1s-.23,1.13-.23,1.96.08,1.49.23,1.96.41.8.77,1c.36.2.85.29,1.48.29s1.12-.1,1.49-.29c.37-.19.62-.53.78-1s.23-1.13.23-1.96-.08-1.49-.23-1.96-.41-.8-.78-1c-.37-.2-.86-.29-1.49-.29Z"/>
    <path class="cls-2" d="m387.44,23.33l.12,1.65.11.26v6.71h-1.5v-8.62h1.27Zm3.96-.21c1.56,0,2.33.79,2.33,2.37v6.46h-1.5v-6.03c0-.58-.09-.98-.28-1.19-.19-.22-.51-.33-.96-.33-.53,0-1.06.13-1.59.39-.53.26-1.16.61-1.89,1.06l-.07-1.08c.67-.52,1.34-.92,2-1.21.66-.29,1.32-.43,1.96-.43Z"/>
    <path class="cls-2" d="m397.61,19.67c.31,0,.46.15.46.46v1.01c0,.31-.15.46-.46.46h-.71c-.31,0-.46-.15-.46-.46v-1.01c0-.31.15-.46.46-.46h.71Zm.39,3.66v8.62h-1.49v-8.62h1.49Z"/>
    <path class="cls-2" d="m407.15,26.64l-.02,1.13-4.12.02c-.41.01-.7.12-.87.33-.17.21-.25.49-.25.86v.55c0,.45.11.78.32.98.21.21.55.31,1.03.31.33,0,.7-.06,1.12-.19.42-.12.84-.32,1.26-.57.42-.26.81-.59,1.17-.99v1.11c-.13.17-.32.36-.56.58-.24.22-.53.43-.87.64-.34.21-.71.38-1.11.51-.41.13-.85.2-1.32.2-.51,0-.96-.09-1.34-.27-.39-.18-.69-.45-.91-.81-.22-.36-.33-.8-.33-1.32v-.94c0-.67.21-1.19.63-1.57.42-.37,1-.56,1.76-.56h4.41Zm-2.25-3.52c.64,0,1.18.08,1.62.26s.78.46,1,.86c.22.4.34.95.34,1.65v6.07h-1.19l-.23-1.88-.11-.19v-4c0-.53-.12-.91-.36-1.14-.24-.23-.7-.34-1.39-.34-.45,0-1.01.02-1.69.07-.68.05-1.35.1-2.01.16l-.14-1.11c.4-.07.84-.14,1.32-.19s.96-.11,1.46-.14c.5-.04.96-.05,1.38-.05Z"/>
    <path class="cls-2" d="m411.43,29.86c.21,0,.36.04.44.12.08.08.12.23.12.44v.96c0,.21-.04.36-.12.44s-.23.12-.44.12h-.5c-.2,0-.35-.04-.43-.12-.09-.08-.13-.23-.13-.44v-.96c0-.21.04-.36.13-.44.09-.08.23-.12.43-.12h.5Z"/>
    <path class="cls-2" d="m418.28,23.12c.26,0,.55.01.87.04.32.02.65.06.98.12.34.06.65.14.93.25l-.19.97c-.39-.04-.8-.06-1.23-.08-.43-.02-.8-.03-1.11-.03-.68,0-1.23.09-1.63.28-.4.19-.69.52-.87.99s-.26,1.13-.26,1.96.09,1.5.26,1.97.47.81.87,1c.4.19.94.28,1.63.28.18,0,.41,0,.69-.02s.59-.03.91-.05.63-.06.93-.11l.16,1.01c-.44.15-.91.26-1.42.34-.51.07-1.02.11-1.53.11-.99,0-1.79-.15-2.39-.44-.6-.29-1.03-.77-1.3-1.43-.27-.66-.4-1.54-.4-2.65s.14-1.99.41-2.65c.27-.66.71-1.14,1.31-1.42.6-.29,1.4-.43,2.39-.43Z"/>
    <path class="cls-2" d="m426.75,23.12c.99,0,1.78.15,2.38.44.6.29,1.02.78,1.28,1.44.26.67.39,1.55.39,2.64s-.13,1.98-.39,2.64c-.26.67-.69,1.15-1.28,1.44-.6.29-1.39.44-2.38.44s-1.77-.15-2.36-.44c-.6-.29-1.03-.78-1.29-1.44-.27-.67-.4-1.55-.4-2.64s.13-1.98.4-2.64.7-1.15,1.29-1.44c.6-.29,1.38-.44,2.36-.44Zm0,1.27c-.63,0-1.12.1-1.48.29-.36.19-.62.53-.77,1s-.23,1.13-.23,1.96.08,1.49.23,1.96.41.8.77,1c.36.2.85.29,1.48.29s1.12-.1,1.49-.29c.37-.19.62-.53.78-1s.23-1.13.23-1.96-.08-1.49-.23-1.96-.41-.8-.78-1c-.37-.2-.86-.29-1.49-.29Z"/>
    <path class="cls-2" d="m434.39,23.33l.11,1.65.16.26v6.71h-1.5v-8.62h1.24Zm3.61-.21c.73,0,1.29.2,1.68.59.39.4.59.99.6,1.78v6.46h-1.45v-6.03c0-.55-.11-.95-.34-1.18-.22-.23-.56-.34-1.01-.34-.29,0-.58.05-.86.14-.28.09-.58.25-.92.46-.34.21-.75.5-1.23.85l-.11-1.06c.62-.55,1.23-.97,1.82-1.25.59-.28,1.19-.42,1.8-.42Zm5.64,0c.74,0,1.31.2,1.71.6.4.4.59.99.59,1.77v6.46h-1.49v-6.03c-.01-.53-.12-.92-.32-1.16-.2-.24-.54-.36-1.03-.36-.31,0-.6.05-.88.15s-.58.26-.91.47-.73.49-1.2.83l-.09-1.06c.62-.55,1.23-.97,1.82-1.25.59-.28,1.18-.42,1.79-.42Z"/>
  </g>
  <g>
    <path class="cls-2" d="m214.35,44.35c1,0,1.8.09,2.39.27.59.18,1.02.5,1.28.96.27.46.4,1.11.4,1.95s-.16,1.54-.49,2-.85.73-1.58.8v.07c.91.08,1.54.4,1.9.96.36.55.54,1.32.54,2.3,0,.84-.13,1.49-.39,1.95s-.68.78-1.25.96c-.57.18-1.32.27-2.26.27-.7,0-1.29,0-1.8,0s-.96-.02-1.39-.04c-.42-.02-.87-.05-1.33-.09l.25-1.24c.26.01.75.02,1.48.04.73.01,1.57.02,2.54.02.65,0,1.16-.06,1.53-.17.37-.11.64-.32.8-.63s.24-.75.24-1.33c0-.64-.08-1.13-.25-1.47-.17-.34-.44-.58-.83-.73s-.92-.22-1.59-.23h-3.93v-1.19h3.91c.59-.01,1.06-.07,1.41-.19.35-.11.6-.32.75-.62s.23-.72.23-1.26-.08-.98-.25-1.27c-.17-.29-.44-.5-.82-.6-.38-.11-.91-.16-1.57-.16h-1.56c-.46,0-.86,0-1.21,0-.35,0-.64.02-.88.04l-.25-1.24c.41-.05.8-.08,1.18-.1s.78-.03,1.22-.04.96,0,1.57,0Zm-2.44.14v12.21h-1.52v-12.21h1.52Z"/>
    <path class="cls-2" d="m225.56,44.33c.94,0,1.7.1,2.28.31.58.21,1,.56,1.27,1.07.27.51.4,1.22.4,2.14,0,.66-.08,1.21-.23,1.65s-.39.79-.72,1.03c-.32.24-.76.4-1.3.47v.09c.2.05.4.14.59.29.19.15.37.34.54.58.17.24.29.53.37.88l1.19,3.86h-1.66l-1.08-3.82c-.15-.46-.36-.79-.62-.98-.26-.2-.6-.29-1.01-.29-.72,0-1.34,0-1.88,0s-.97-.01-1.33-.03c-.35-.01-.64-.02-.85-.02l.05-1.29h3.94c.6-.01,1.08-.08,1.42-.21.35-.13.6-.36.75-.7.15-.34.23-.8.23-1.41s-.08-1.06-.23-1.39c-.15-.32-.4-.55-.75-.68-.35-.13-.82-.2-1.42-.2-.97,0-1.8,0-2.5.02-.7.01-1.18.02-1.42.02l-.25-1.22c.45-.05.87-.08,1.26-.11s.82-.04,1.28-.04,1.02,0,1.67,0Zm-2.67.16v12.21h-1.54v-12.21h1.54Z"/>
    <path class="cls-2" d="m237.42,51.65v1.15h-5.4v-1.15h5.4Z"/>
    <path class="cls-2" d="m243.18,44.49v12.21h-1.56v-9.68c0-.18,0-.35.02-.53.01-.18.04-.35.07-.53l-2.99.94-.21-1.15,3.11-1.26h1.56Z"/>
    <path class="cls-2" d="m250.23,44.49v12.21h-1.56v-9.68c0-.18,0-.35.02-.53.01-.18.04-.35.07-.53l-2.99.94-.21-1.15,3.11-1.26h1.56Z"/>
    <path class="cls-2" d="m258.11,44.28c.25,0,.6.01,1.04.04.45.02.92.1,1.42.23l-.14,1.13c-.26-.02-.5-.04-.72-.05-.22-.01-.45-.02-.7-.02h-.9c-.6,0-1.11.06-1.52.19-.41.13-.74.38-.99.74s-.42.9-.53,1.61c-.11.71-.16,1.64-.16,2.8,0,.88.02,1.63.07,2.23.05.6.16,1.08.33,1.42.17.35.43.6.78.75.35.15.82.23,1.42.23.7,0,1.21-.11,1.55-.33.34-.22.55-.54.65-.96.1-.42.15-.94.15-1.54,0-.67-.06-1.21-.19-1.61-.12-.4-.35-.69-.68-.88-.33-.18-.8-.27-1.4-.27-.39,0-.75.05-1.08.14-.33.09-.67.26-1.01.5-.34.24-.74.58-1.19,1.02l-.07-.78c.39-.55.76-.99,1.11-1.3.35-.31.74-.53,1.16-.66.42-.12.91-.19,1.48-.19.86,0,1.53.13,2.02.39.48.26.83.68,1.03,1.26s.3,1.37.3,2.36c0,.63-.05,1.19-.14,1.71-.09.51-.28.95-.55,1.32-.27.37-.66.65-1.17.84-.51.2-1.17.29-2,.29s-1.56-.1-2.11-.29c-.54-.19-.96-.52-1.25-.98s-.49-1.08-.6-1.85c-.11-.77-.17-1.74-.17-2.89,0-1.44.1-2.59.29-3.47s.49-1.54.88-1.99.88-.76,1.48-.92c.6-.16,1.29-.24,2.1-.24Z"/>
    <path class="cls-2" d="m264.57,54.61c.21,0,.36.04.43.12.08.08.11.23.11.44v1.13c0,.33-.03.66-.08.97-.05.32-.12.62-.21.91-.09.29-.2.57-.33.84l-.71-.21c.06-.37.1-.7.13-1.01.03-.31.04-.68.04-1.11-.28,0-.42-.17-.42-.5v-1.03c.01-.21.06-.36.16-.44.09-.08.24-.12.42-.12h.44Z"/>
    <path class="cls-2" d="m273.38,44.49v3.82c0,.35-.02.69-.05,1.01-.04.32-.09.65-.16.99.06.33.11.66.15.99s.06.65.06.96v4.44h-1.54v-12.21h1.54Zm1.8,5.22v1.26h-2.35v-1.26h2.35Zm4.99-5.22l-3.56,5.06c-.11.15-.21.29-.31.4s-.22.24-.36.38v.04c.15.14.29.28.42.42.13.14.24.28.34.42l3.72,5.48h-1.75l-4.33-6.39,4.14-5.82h1.7Z"/>
    <path class="cls-2" d="m283.38,48.08l.11,1.65.16.26v6.71h-1.5v-8.62h1.24Zm3.61-.21c.73,0,1.29.2,1.68.59.39.4.59.99.6,1.78v6.46h-1.45v-6.03c0-.55-.11-.95-.34-1.18-.22-.23-.56-.34-1.01-.34-.29,0-.58.05-.86.14-.28.09-.58.25-.92.46-.34.21-.75.5-1.23.85l-.11-1.06c.62-.55,1.23-.97,1.82-1.25.59-.28,1.19-.42,1.8-.42Zm5.64,0c.74,0,1.31.2,1.71.6.4.4.59.99.59,1.77v6.46h-1.49v-6.03c-.01-.53-.12-.92-.32-1.16-.2-.24-.54-.36-1.03-.36-.31,0-.6.05-.88.15-.28.1-.58.26-.91.47s-.73.49-1.2.83l-.09-1.06c.62-.55,1.23-.97,1.82-1.25.59-.28,1.19-.42,1.79-.42Z"/>
    <path class="cls-2" d="m308.34,44.49l-.07,1.33h-5.13l-.18,3.33,1.31.11c.8.06,1.48.17,2.04.32.56.15,1.02.38,1.37.67.35.29.61.67.77,1.12.16.45.24,1.01.24,1.67,0,.5-.05.97-.15,1.43-.1.46-.29.87-.57,1.24-.28.37-.68.66-1.19.88-.52.22-1.2.33-2.03.33-.48,0-1.04-.04-1.68-.11-.64-.07-1.29-.18-1.95-.34l.18-1.26c.55.09,1.11.17,1.66.23.55.06,1.03.09,1.43.09.78,0,1.36-.1,1.75-.29.39-.2.65-.48.8-.85s.22-.82.23-1.35c.01-.57-.06-1.01-.2-1.34-.15-.32-.38-.57-.71-.72-.32-.16-.75-.27-1.29-.34-.54-.07-1.19-.12-1.97-.17l-.81-.05c-.18-.02-.32-.1-.43-.22-.11-.12-.16-.28-.15-.47l.28-5.24h6.46Z"/>
    <path class="cls-2" d="m314.74,44.49v12.21h-1.56v-9.68c0-.18,0-.35.02-.53.01-.18.04-.35.07-.53l-2.99.94-.21-1.15,3.11-1.26h1.56Z"/>
    <path class="cls-2" d="m321.6,44.28c.88,0,1.59.1,2.13.31.54.21.94.55,1.21,1.02.27.47.45,1.1.54,1.89s.13,1.78.13,2.95c0,1.37-.09,2.48-.27,3.33-.18.85-.45,1.5-.82,1.96-.37.45-.86.76-1.46.93-.6.17-1.33.25-2.18.25-.27,0-.64-.01-1.11-.04-.47-.02-.98-.1-1.53-.23l.14-1.15c.28.02.54.04.76.05.22.01.47.02.73.02h1c.61,0,1.13-.07,1.54-.21.41-.14.74-.4.99-.77.25-.37.42-.89.53-1.57.11-.67.16-1.54.16-2.6,0-.93-.02-1.71-.06-2.33s-.14-1.11-.29-1.48c-.15-.37-.4-.62-.74-.78-.34-.15-.82-.23-1.43-.23-.67,0-1.18.11-1.53.34-.35.22-.58.55-.7.97-.12.42-.18.94-.18,1.56s.06,1.09.19,1.5c.12.41.35.72.68.93.33.21.78.32,1.36.32.39,0,.75-.05,1.07-.15.32-.1.66-.27,1-.51.34-.24.74-.58,1.19-1l.07.76c-.38.55-.75.99-1.11,1.3-.36.31-.75.53-1.16.65-.41.12-.9.19-1.47.19-.84,0-1.5-.17-1.98-.51-.48-.34-.83-.81-1.03-1.42-.2-.6-.3-1.29-.3-2.05,0-.93.12-1.71.36-2.33s.65-1.08,1.22-1.4,1.35-.47,2.33-.47Z"/>
    <path class="cls-2" d="m336.39,42.72l.19.73c-1.18.58-2.04,1.51-2.57,2.79s-.8,2.92-.8,4.93c0,1.31.12,2.47.35,3.49.24,1.01.6,1.87,1.1,2.57.5.7,1.14,1.26,1.93,1.67l-.19.73c-1.6-.62-2.78-1.62-3.53-2.98-.75-1.36-1.12-3.18-1.12-5.46s.37-4.12,1.12-5.48c.75-1.37,1.93-2.36,3.53-2.97Z"/>
    <path class="cls-2" d="m341.58,44.28c.58.01,1.17.04,1.79.09s1.23.14,1.84.27l-.11,1.13c-.51-.02-1.07-.04-1.68-.06-.61-.02-1.2-.03-1.77-.03-.44,0-.81.02-1.12.04-.31.03-.57.1-.77.21-.2.11-.35.29-.43.55-.09.25-.13.6-.13,1.05,0,.67.12,1.14.36,1.41.24.26.63.46,1.18.59l2.48.62c.94.22,1.59.62,1.94,1.18.35.56.52,1.31.52,2.26,0,.71-.08,1.28-.24,1.72s-.4.77-.73,1c-.33.23-.75.39-1.27.48-.52.09-1.13.13-1.84.13-.4,0-.92-.02-1.57-.05-.64-.04-1.38-.13-2.22-.28l.11-1.15c.7.02,1.26.04,1.68.06.42.02.79.03,1.1.03h.96c.62,0,1.12-.05,1.48-.14.36-.09.61-.28.76-.57s.22-.7.22-1.26c0-.47-.05-.84-.16-1.1-.11-.26-.27-.46-.5-.59s-.52-.25-.88-.33l-2.53-.64c-.88-.22-1.51-.61-1.87-1.17-.36-.55-.54-1.3-.54-2.23,0-.71.08-1.28.24-1.71s.4-.75.73-.97c.32-.22.73-.36,1.23-.43.5-.07,1.08-.11,1.77-.11Z"/>
    <path class="cls-2" d="m349.4,48.08v6.05c-.01.54.09.93.3,1.15s.57.34,1.06.34.96-.12,1.44-.34c.48-.23,1.05-.56,1.73-1l.19,1.04c-.67.53-1.32.93-1.95,1.2-.63.27-1.27.41-1.92.41-1.57,0-2.35-.79-2.35-2.37v-6.47h1.5Zm5.87,0v8.62h-1.2l-.14-1.63-.16-.26v-6.72h1.5Z"/>
    <path class="cls-2" d="m359.55,44.31l-.02,10.01c0,.38.1.66.31.86.21.19.5.29.88.29h.83l.18,1.15c-.11.05-.26.09-.45.12-.2.04-.4.06-.6.08s-.38.03-.52.03c-.64,0-1.15-.19-1.53-.57-.38-.38-.58-.92-.58-1.63v-10.35h1.5Z"/>
    <path class="cls-2" d="m362.2,42.72c1.62.61,2.8,1.6,3.55,2.97.75,1.37,1.12,3.2,1.12,5.48s-.37,4.1-1.12,5.46c-.75,1.36-1.93,2.36-3.55,2.98l-.18-.73c.79-.41,1.43-.97,1.92-1.67.49-.7.85-1.56,1.09-2.57.24-1.01.35-2.18.35-3.49,0-2-.27-3.65-.8-4.93-.53-1.28-1.39-2.21-2.56-2.79l.18-.73Z"/>
    <path class="cls-2" d="m370.06,54.61c.21,0,.36.04.43.12.08.08.12.23.12.44v1.13c0,.33-.03.66-.08.97-.05.32-.12.62-.21.91-.09.29-.2.57-.33.84l-.71-.21c.06-.37.1-.7.13-1.01s.04-.68.04-1.11c-.28,0-.42-.17-.42-.5v-1.03c.01-.21.06-.36.16-.44.09-.08.24-.12.42-.12h.44Z"/>
    <path class="cls-2" d="m381.7,44.28c.25,0,.6.01,1.04.04.45.02.92.1,1.42.23l-.14,1.13c-.26-.02-.5-.04-.72-.05-.22-.01-.45-.02-.7-.02h-.9c-.6,0-1.11.06-1.52.19-.41.13-.74.38-.99.74s-.42.9-.53,1.61c-.11.71-.16,1.64-.16,2.8,0,.88.02,1.63.07,2.23s.16,1.08.33,1.42c.17.35.43.6.78.75s.82.23,1.42.23c.7,0,1.21-.11,1.55-.33.34-.22.55-.54.65-.96.1-.42.15-.94.15-1.54,0-.67-.06-1.21-.19-1.61-.12-.4-.35-.69-.68-.88-.33-.18-.8-.27-1.4-.27-.39,0-.75.05-1.08.14-.33.09-.67.26-1.01.5-.34.24-.74.58-1.19,1.02l-.07-.78c.39-.55.76-.99,1.12-1.3.35-.31.74-.53,1.16-.66.42-.12.91-.19,1.48-.19.86,0,1.53.13,2.02.39s.83.68,1.03,1.26c.2.58.3,1.37.3,2.36,0,.63-.05,1.19-.14,1.71-.09.51-.28.95-.55,1.32s-.66.65-1.17.84c-.51.2-1.17.29-2,.29s-1.56-.1-2.1-.29c-.54-.19-.96-.52-1.25-.98-.29-.46-.49-1.08-.6-1.85-.11-.77-.17-1.74-.17-2.89,0-1.44.1-2.59.29-3.47.2-.87.49-1.54.88-1.99.39-.45.88-.76,1.48-.92.59-.16,1.29-.24,2.1-.24Z"/>
    <path class="cls-2" d="m391.29,44.31c.78,0,1.42.07,1.92.2.5.13.9.32,1.19.58.29.26.49.59.6,1s.17.89.17,1.44-.06,1-.18,1.4c-.12.4-.3.72-.56.96-.25.24-.59.39-1,.43v.07c.52.05.92.21,1.21.49.29.28.49.65.61,1.11.12.47.18,1.02.18,1.65,0,.74-.11,1.35-.34,1.83-.22.48-.63.83-1.23,1.05-.6.22-1.45.34-2.57.34s-1.95-.11-2.55-.34c-.6-.22-1.02-.58-1.26-1.05-.24-.48-.35-1.09-.35-1.83,0-.64.06-1.19.19-1.65.12-.46.33-.84.63-1.11.29-.28.7-.44,1.2-.49v-.07c-.41-.05-.75-.19-1.01-.43-.26-.24-.45-.56-.57-.96-.12-.4-.18-.87-.18-1.4s.06-1.03.18-1.44c.12-.41.32-.74.61-1,.29-.26.68-.45,1.18-.58.5-.13,1.14-.2,1.92-.2Zm.04,6.67c-.55,0-1.01.04-1.36.11-.35.07-.63.19-.83.36-.2.17-.34.41-.42.72-.08.31-.12.7-.12,1.17,0,.54.07.98.22,1.3s.42.55.81.69.95.2,1.67.2,1.27-.07,1.65-.2c.38-.14.64-.37.78-.69s.21-.76.21-1.3c0-.48-.04-.88-.11-1.19-.08-.31-.21-.54-.4-.72s-.45-.29-.8-.35c-.34-.06-.78-.1-1.31-.1Zm-.02-5.41c-.67,0-1.19.06-1.54.19s-.6.35-.73.65-.2.73-.2,1.26.07.98.2,1.28.38.51.74.62.88.17,1.55.17,1.2-.06,1.55-.18c.35-.12.58-.33.7-.63.12-.3.18-.72.18-1.27s-.06-.95-.19-1.26-.36-.52-.72-.65-.87-.19-1.54-.19Z"/>
    <path class="cls-2" d="m401.44,44.28c.78,0,1.45.07,2.01.19.56.13.99.38,1.29.76.3.38.45.94.45,1.68,0,.51-.07.99-.2,1.43s-.36.91-.68,1.39-.75,1.02-1.29,1.62l-3.5,3.91c.31-.02.63-.04.98-.05.35-.01.68-.02,1-.02h4.14v1.5h-8.01v-.97c0-.13.02-.25.05-.36.04-.11.09-.21.18-.31l3.54-4c.78-.84,1.35-1.58,1.72-2.23s.54-1.26.51-1.84c-.01-.4-.11-.69-.29-.88-.18-.18-.44-.3-.78-.36-.34-.06-.74-.09-1.21-.09-.38,0-.74,0-1.08.02-.34.01-.7.04-1.09.08-.38.04-.83.1-1.33.19l-.11-1.2c.55-.13,1.04-.23,1.46-.29.42-.06.81-.11,1.17-.13.36-.02.72-.04,1.09-.04Z"/>
    <path class="cls-2" d="m414.73,44.49l-.07,1.33h-5.13l-.18,3.33,1.31.11c.8.06,1.48.17,2.04.32.56.15,1.02.38,1.37.67.35.29.61.67.77,1.12.16.45.24,1.01.24,1.67,0,.5-.05.97-.15,1.43-.1.46-.29.87-.57,1.24-.28.37-.68.66-1.19.88-.52.22-1.2.33-2.03.33-.48,0-1.04-.04-1.68-.11-.64-.07-1.29-.18-1.95-.34l.18-1.26c.55.09,1.11.17,1.66.23.55.06,1.03.09,1.43.09.78,0,1.36-.1,1.75-.29.39-.2.65-.48.8-.85s.22-.82.23-1.35c.01-.57-.06-1.01-.2-1.34-.15-.32-.38-.57-.71-.72s-.75-.27-1.29-.34c-.54-.07-1.19-.12-1.97-.17l-.81-.05c-.18-.02-.32-.1-.43-.22s-.16-.28-.15-.47l.28-5.24h6.46Z"/>
    <path class="cls-2" d="m422.74,42.88v16.81h-1.1v-16.81h1.1Z"/>
    <path class="cls-2" d="m433.2,44.28c.88,0,1.59.1,2.13.31.54.21.94.55,1.21,1.02.27.47.45,1.1.54,1.89s.13,1.78.13,2.95c0,1.37-.09,2.48-.27,3.33s-.45,1.5-.82,1.96c-.37.45-.86.76-1.46.93s-1.33.25-2.18.25c-.27,0-.64-.01-1.11-.04s-.98-.1-1.53-.23l.14-1.15c.28.02.54.04.76.05.22.01.47.02.73.02h1c.61,0,1.13-.07,1.54-.21s.74-.4.99-.77c.25-.37.42-.89.53-1.57s.16-1.54.16-2.6c0-.93-.02-1.71-.06-2.33-.04-.62-.14-1.11-.29-1.48-.15-.37-.4-.62-.74-.78-.34-.15-.82-.23-1.43-.23-.67,0-1.18.11-1.53.34-.35.22-.58.55-.7.97-.12.42-.18.94-.18,1.56s.06,1.09.19,1.5c.12.41.35.72.68.93.33.21.78.32,1.36.32.39,0,.75-.05,1.07-.15.32-.1.66-.27,1-.51.34-.24.74-.58,1.19-1l.07.76c-.38.55-.75.99-1.11,1.3-.36.31-.75.53-1.16.65-.41.12-.9.19-1.47.19-.84,0-1.5-.17-1.98-.51s-.83-.81-1.03-1.42-.3-1.29-.3-2.05c0-.93.12-1.71.36-2.33.24-.62.65-1.08,1.22-1.4.57-.31,1.35-.47,2.33-.47Z"/>
    <path class="cls-2" d="m444.34,44.28c.25,0,.6.01,1.04.04.45.02.92.1,1.42.23l-.14,1.13c-.26-.02-.5-.04-.72-.05-.22-.01-.45-.02-.7-.02h-.9c-.6,0-1.11.06-1.52.19-.41.13-.74.38-.99.74s-.42.9-.53,1.61c-.11.71-.16,1.64-.16,2.8,0,.88.02,1.63.07,2.23s.16,1.08.33,1.42c.17.35.43.6.78.75s.82.23,1.42.23c.7,0,1.21-.11,1.55-.33.34-.22.55-.54.65-.96.1-.42.15-.94.15-1.54,0-.67-.06-1.21-.19-1.61-.12-.4-.35-.69-.68-.88-.33-.18-.8-.27-1.4-.27-.39,0-.75.05-1.08.14-.33.09-.67.26-1.01.5-.34.24-.74.58-1.19,1.02l-.07-.78c.39-.55.76-.99,1.12-1.3.35-.31.74-.53,1.16-.66.42-.12.91-.19,1.48-.19.86,0,1.53.13,2.02.39s.83.68,1.03,1.26c.2.58.3,1.37.3,2.36,0,.63-.05,1.19-.14,1.71-.09.51-.28.95-.55,1.32s-.66.65-1.17.84c-.51.2-1.17.29-2,.29s-1.56-.1-2.1-.29c-.54-.19-.96-.52-1.25-.98-.29-.46-.49-1.08-.6-1.85-.11-.77-.17-1.74-.17-2.89,0-1.44.1-2.59.29-3.47.2-.87.49-1.54.88-1.99.39-.45.88-.76,1.48-.92.59-.16,1.29-.24,2.1-.24Z"/>
    <path class="cls-2" d="m453.88,44.26c1.05,0,1.88.22,2.49.65.61.44,1.05,1.12,1.32,2.05.27.93.4,2.14.4,3.63s-.13,2.7-.4,3.63c-.26.93-.7,1.62-1.32,2.05-.61.44-1.45.65-2.49.65s-1.86-.22-2.48-.65c-.61-.44-1.05-1.12-1.32-2.05s-.4-2.14-.4-3.63.13-2.69.4-3.63.7-1.62,1.32-2.05c.61-.44,1.44-.65,2.48-.65Zm0,1.36c-.51,0-.93.09-1.27.27s-.62.47-.82.86c-.21.39-.35.9-.44,1.53-.09.63-.13,1.4-.13,2.31s.04,1.66.13,2.3c.09.64.24,1.15.44,1.54.21.39.48.68.82.86s.77.27,1.27.27.93-.09,1.28-.27.62-.47.83-.86c.21-.39.35-.9.44-1.54.09-.64.13-1.4.13-2.3s-.04-1.68-.13-2.31c-.09-.63-.24-1.14-.44-1.53-.21-.39-.48-.67-.83-.86s-.78-.27-1.28-.27Z"/>
    <path class="cls-2" d="m466.81,44.49c.25,0,.44.04.58.13.14.09.23.21.27.37.04.16.03.35-.04.58l-3.8,11.13h-1.56l3.43-9.98c.06-.17.12-.32.18-.47.06-.15.12-.29.2-.43h-6.09l-.07-1.33h6.9Z"/>
    <path class="cls-2" d="m473.6,44.26c1.05,0,1.88.22,2.49.65.61.44,1.05,1.12,1.32,2.05.27.93.4,2.14.4,3.63s-.13,2.7-.4,3.63c-.26.93-.7,1.62-1.32,2.05-.61.44-1.45.65-2.49.65s-1.86-.22-2.48-.65c-.61-.44-1.05-1.12-1.32-2.05s-.4-2.14-.4-3.63.13-2.69.4-3.63.7-1.62,1.32-2.05c.61-.44,1.44-.65,2.48-.65Zm0,1.36c-.51,0-.93.09-1.27.27s-.62.47-.82.86c-.21.39-.35.9-.44,1.53-.09.63-.13,1.4-.13,2.31s.04,1.66.13,2.3c.09.64.24,1.15.44,1.54.21.39.48.68.82.86s.77.27,1.27.27.93-.09,1.28-.27.62-.47.83-.86c.21-.39.35-.9.44-1.54.09-.64.13-1.4.13-2.3s-.04-1.68-.13-2.31c-.09-.63-.24-1.14-.44-1.53-.21-.39-.48-.67-.83-.86s-.78-.27-1.28-.27Z"/>
    <path class="cls-2" d="m485.61,51.65v1.15h-5.4v-1.15h5.4Z"/>
    <path class="cls-2" d="m495.02,44.49l-.07,1.33h-5.13l-.18,3.33,1.31.11c.8.06,1.48.17,2.04.32.56.15,1.02.38,1.37.67.35.29.61.67.77,1.12.16.45.24,1.01.24,1.67,0,.5-.05.97-.15,1.43-.1.46-.29.87-.57,1.24-.28.37-.68.66-1.19.88-.52.22-1.2.33-2.03.33-.48,0-1.04-.04-1.68-.11-.64-.07-1.29-.18-1.95-.34l.18-1.26c.55.09,1.11.17,1.66.23.55.06,1.03.09,1.43.09.78,0,1.36-.1,1.75-.29.39-.2.65-.48.8-.85s.22-.82.23-1.35c.01-.57-.06-1.01-.2-1.34-.15-.32-.38-.57-.71-.72s-.75-.27-1.29-.34c-.54-.07-1.19-.12-1.97-.17l-.81-.05c-.18-.02-.32-.1-.43-.22s-.16-.28-.15-.47l.28-5.24h6.46Z"/>
    <path class="cls-2" d="m502.27,44.28c.25,0,.6.01,1.04.04.45.02.92.1,1.42.23l-.14,1.13c-.26-.02-.5-.04-.72-.05-.22-.01-.45-.02-.7-.02h-.9c-.6,0-1.11.06-1.52.19-.41.13-.74.38-.99.74s-.42.9-.53,1.61c-.11.71-.16,1.64-.16,2.8,0,.88.02,1.63.07,2.23s.16,1.08.33,1.42c.17.35.43.6.78.75s.82.23,1.42.23c.7,0,1.21-.11,1.55-.33.34-.22.55-.54.65-.96.1-.42.15-.94.15-1.54,0-.67-.06-1.21-.19-1.61-.12-.4-.35-.69-.68-.88-.33-.18-.8-.27-1.4-.27-.39,0-.75.05-1.08.14-.33.09-.67.26-1.01.5-.34.24-.74.58-1.19,1.02l-.07-.78c.39-.55.76-.99,1.12-1.3.35-.31.74-.53,1.16-.66.42-.12.91-.19,1.48-.19.86,0,1.53.13,2.02.39s.83.68,1.03,1.26c.2.58.3,1.37.3,2.36,0,.63-.05,1.19-.14,1.71-.09.51-.28.95-.55,1.32s-.66.65-1.17.84c-.51.2-1.17.29-2,.29s-1.56-.1-2.1-.29c-.54-.19-.96-.52-1.25-.98-.29-.46-.49-1.08-.6-1.85-.11-.77-.17-1.74-.17-2.89,0-1.44.1-2.59.29-3.47.2-.87.49-1.54.88-1.99.39-.45.88-.76,1.48-.92.59-.16,1.29-.24,2.1-.24Z"/>
    <path class="cls-2" d="m511.81,44.26c1.05,0,1.88.22,2.49.65.61.44,1.05,1.12,1.32,2.05.27.93.4,2.14.4,3.63s-.13,2.7-.4,3.63c-.26.93-.7,1.62-1.32,2.05-.61.44-1.45.65-2.49.65s-1.86-.22-2.48-.65c-.61-.44-1.05-1.12-1.32-2.05s-.4-2.14-.4-3.63.13-2.69.4-3.63.7-1.62,1.32-2.05c.61-.44,1.44-.65,2.48-.65Zm0,1.36c-.51,0-.93.09-1.27.27s-.62.47-.82.86c-.21.39-.35.9-.44,1.53-.09.63-.13,1.4-.13,2.31s.04,1.66.13,2.3c.09.64.24,1.15.44,1.54.21.39.48.68.82.86s.77.27,1.27.27.93-.09,1.28-.27.62-.47.83-.86c.21-.39.35-.9.44-1.54.09-.64.13-1.4.13-2.3s-.04-1.68-.13-2.31c-.09-.63-.24-1.14-.44-1.53-.21-.39-.48-.67-.83-.86s-.78-.27-1.28-.27Z"/>
  </g>
  <g>
    <path class="cls-2" d="m291.17,69.08c.98,0,1.75.11,2.33.34.57.22.98.61,1.23,1.16.25.55.37,1.32.37,2.33s-.12,1.78-.36,2.34c-.24.55-.64.94-1.19,1.16-.55.22-1.28.33-2.2.33-.5,0-.97-.01-1.42-.04s-.87-.06-1.25-.1c-.38-.04-.7-.08-.96-.13-.27-.05-.45-.09-.56-.12l.05-.96h3.94c.59-.01,1.06-.09,1.41-.22.35-.14.6-.38.74-.74.15-.36.22-.86.22-1.51s-.07-1.17-.22-1.52c-.15-.35-.4-.6-.74-.74-.35-.14-.82-.21-1.41-.21-.97,0-1.8,0-2.5.02-.7.01-1.18.03-1.42.05l-.25-1.26c.45-.05.87-.08,1.26-.11s.81-.04,1.27-.04,1.01,0,1.66,0Zm-2.64.16v12.21h-1.56v-12.21h1.56Z"/>
    <path class="cls-2" d="m300.69,72.62c1.3,0,2.24.24,2.82.71.58.47.88,1.17.88,2.11.01.77-.15,1.37-.48,1.8-.33.43-.86.65-1.57.65h-5.02v-1.17h4.63c.39,0,.64-.13.76-.4.12-.27.18-.56.18-.88-.01-.55-.18-.95-.5-1.19-.32-.24-.86-.35-1.63-.35-.63,0-1.12.09-1.48.27-.36.18-.61.5-.76.96-.15.45-.22,1.09-.22,1.9,0,.92.09,1.62.27,2.11.18.48.47.81.88.99.4.18.93.27,1.59.27.46,0,.96-.02,1.51-.06s1.04-.09,1.48-.15l.16,1.01c-.27.11-.6.2-1,.27-.4.07-.8.12-1.22.16-.42.04-.79.05-1.12.05-.99,0-1.79-.15-2.39-.45s-1.04-.78-1.32-1.45c-.28-.67-.42-1.55-.42-2.64s.14-2.03.42-2.68c.28-.65.71-1.12,1.29-1.4.58-.28,1.34-.42,2.26-.42Z"/>
    <path class="cls-2" d="m308.17,69.06l-.02,10.01c0,.38.1.66.31.86.21.19.5.29.88.29h.83l.18,1.15c-.11.05-.26.09-.45.12-.19.04-.4.06-.6.08s-.38.03-.52.03c-.64,0-1.15-.19-1.53-.57-.38-.38-.58-.92-.58-1.63v-10.35h1.5Z"/>
    <path class="cls-2" d="m315.55,72.62c.99,0,1.78.15,2.38.44.6.29,1.02.78,1.28,1.44.26.67.39,1.55.39,2.64s-.13,1.98-.39,2.64c-.26.67-.69,1.15-1.28,1.44-.6.29-1.39.44-2.38.44s-1.77-.15-2.36-.44c-.6-.29-1.03-.78-1.29-1.44-.27-.67-.4-1.55-.4-2.64s.13-1.98.4-2.64c.27-.67.7-1.15,1.29-1.44.6-.29,1.38-.44,2.36-.44Zm0,1.27c-.62,0-1.12.1-1.48.29-.36.19-.62.53-.77,1s-.23,1.13-.23,1.96.08,1.49.23,1.96.41.8.77,1c.36.2.85.29,1.48.29s1.12-.1,1.49-.29c.37-.19.62-.53.78-1,.15-.47.23-1.13.23-1.96s-.08-1.49-.23-1.96c-.15-.47-.41-.8-.78-1-.37-.2-.86-.29-1.49-.29Z"/>
    <path class="cls-2" d="m326.83,72.83v1.19h-5.8v-1.1l1.7-.09h4.1Zm-2.74-2.55v8.79c0,.41.09.71.27.88.18.18.48.27.9.27h1.31l.18,1.15c-.19.05-.41.09-.65.12-.25.04-.49.06-.73.08-.24.02-.42.03-.57.03-.72,0-1.27-.2-1.65-.6-.38-.4-.57-.98-.57-1.73v-8.99h1.5Z"/>
    <path class="cls-2" d="m334.99,76.14l-.02,1.13-4.12.02c-.41.01-.7.12-.87.33-.17.21-.25.49-.25.86v.55c0,.45.11.78.32.98.21.21.55.31,1.03.31.33,0,.7-.06,1.12-.19.42-.12.84-.32,1.26-.57.42-.26.81-.59,1.17-.99v1.11c-.13.17-.32.36-.56.58-.24.22-.53.43-.87.64-.34.21-.71.38-1.11.51-.41.13-.85.2-1.32.2-.51,0-.96-.09-1.34-.27s-.69-.45-.91-.81-.33-.8-.33-1.32v-.94c0-.67.21-1.19.63-1.57.42-.37,1.01-.56,1.76-.56h4.4Zm-2.25-3.52c.64,0,1.18.08,1.62.26s.78.46,1,.86c.22.4.34.95.34,1.65v6.07h-1.19l-.23-1.88-.11-.19v-4c0-.53-.12-.91-.36-1.14-.24-.23-.71-.34-1.39-.34-.45,0-1.01.02-1.69.07-.68.05-1.35.1-2.01.16l-.14-1.11c.4-.07.84-.14,1.32-.19s.96-.11,1.46-.14c.5-.04.96-.05,1.38-.05Z"/>
    <path class="cls-2" d="m341.25,72.62c.38,0,.78.01,1.2.04.42.02.85.05,1.26.09.42.04.81.08,1.16.14l-.12,1.1c-.54-.02-1.09-.04-1.64-.06-.55-.02-1.09-.03-1.64-.03-.53-.01-.95,0-1.26.04s-.53.13-.66.28-.2.41-.2.78c0,.45.11.74.32.88s.52.26.94.35l2.51.57c.68.17,1.19.42,1.51.76s.49.88.49,1.61-.13,1.24-.4,1.59c-.27.35-.67.59-1.21.71-.54.12-1.23.18-2.07.18-.31,0-.76-.01-1.37-.04s-1.28-.09-2.01-.21l.11-1.1c.28.01.58.03.9.04s.65.03,1,.03h1.07c.65,0,1.16-.03,1.52-.09.37-.06.62-.17.78-.34.15-.17.23-.43.23-.77,0-.42-.12-.71-.37-.85s-.58-.26-.99-.35l-2.48-.57c-.47-.12-.85-.27-1.13-.47-.28-.2-.49-.45-.62-.76s-.19-.71-.19-1.18c0-.67.12-1.18.35-1.52.24-.34.6-.57,1.1-.69.5-.12,1.13-.17,1.91-.16Z"/>
    <path class="cls-2" d="m348.24,79.36c.21,0,.36.04.43.12.08.08.11.23.11.44v1.13c0,.33-.03.66-.08.97-.05.32-.12.62-.21.91-.09.29-.2.57-.33.84l-.71-.21c.06-.37.1-.7.13-1.01.03-.31.04-.68.04-1.11-.28,0-.42-.17-.42-.5v-1.03c.01-.21.06-.36.16-.44.09-.08.24-.12.42-.12h.44Z"/>
    <path class="cls-2" d="m359.72,69.08c.94,0,1.7.1,2.28.31.58.21,1,.56,1.27,1.07.27.51.4,1.22.4,2.14,0,.66-.08,1.21-.23,1.65-.15.44-.39.79-.72,1.03-.32.24-.76.4-1.3.47v.09c.2.05.4.14.59.29.2.15.38.34.54.58.17.24.29.53.37.88l1.19,3.86h-1.66l-1.08-3.82c-.15-.46-.36-.79-.62-.98-.26-.2-.6-.29-1.01-.29-.72,0-1.34,0-1.88,0s-.97-.01-1.33-.03c-.35-.01-.64-.02-.85-.02l.05-1.29h3.94c.6-.01,1.08-.08,1.42-.21.35-.13.6-.36.75-.7.15-.34.23-.8.23-1.41s-.08-1.06-.23-1.39c-.15-.32-.4-.55-.75-.68-.35-.13-.82-.2-1.42-.2-.97,0-1.8,0-2.5.02-.7.01-1.18.02-1.42.02l-.25-1.22c.45-.05.87-.08,1.26-.11s.82-.04,1.28-.04,1.02,0,1.67,0Zm-2.67.16v12.21h-1.54v-12.21h1.54Z"/>
    <path class="cls-2" d="m369.84,69.03c.58.01,1.17.04,1.79.09s1.23.14,1.84.27l-.11,1.13c-.51-.02-1.07-.04-1.68-.06-.61-.02-1.2-.03-1.77-.03-.44,0-.81.02-1.12.04s-.57.1-.77.21-.34.29-.43.55c-.09.25-.13.6-.13,1.05,0,.67.12,1.14.36,1.41.24.26.63.46,1.18.59l2.48.62c.94.22,1.59.62,1.94,1.18.35.56.52,1.31.52,2.26,0,.71-.08,1.28-.24,1.72s-.4.77-.73,1c-.33.23-.75.39-1.27.48-.52.09-1.13.13-1.84.13-.4,0-.92-.02-1.57-.05s-1.38-.13-2.22-.28l.11-1.15c.7.02,1.26.04,1.68.06s.79.03,1.1.03h.96c.62,0,1.12-.05,1.48-.14.36-.09.61-.28.76-.57s.22-.7.22-1.26c0-.47-.05-.84-.16-1.1-.11-.26-.27-.46-.5-.59-.23-.14-.52-.25-.88-.33l-2.53-.64c-.88-.22-1.51-.61-1.87-1.17-.36-.55-.54-1.3-.54-2.23,0-.71.08-1.28.24-1.71s.4-.75.73-.97c.32-.22.73-.36,1.23-.43.5-.07,1.08-.11,1.77-.11Z"/>
    <path class="cls-2" d="m385.44,76.4v1.15h-5.4v-1.15h5.4Z"/>
    <path class="cls-2" d="m396.16,69.1c1,0,1.8.09,2.39.27.59.18,1.02.5,1.28.96.26.46.4,1.11.4,1.95s-.16,1.54-.49,2-.85.73-1.58.8v.07c.91.08,1.54.4,1.9.96.36.55.54,1.32.54,2.3,0,.84-.13,1.49-.39,1.95s-.67.78-1.25.96-1.32.27-2.26.27c-.7,0-1.29,0-1.79,0-.5,0-.96-.02-1.39-.04-.42-.02-.87-.05-1.33-.09l.25-1.24c.26.01.75.02,1.48.04.73.01,1.57.02,2.54.02.65,0,1.16-.06,1.53-.17.37-.11.64-.32.8-.63s.24-.75.24-1.33c0-.64-.08-1.13-.25-1.47s-.44-.58-.83-.73c-.39-.14-.92-.22-1.59-.23h-3.93v-1.19h3.91c.59-.01,1.06-.07,1.41-.19s.6-.32.75-.62.23-.72.23-1.26-.08-.98-.25-1.27c-.17-.29-.44-.5-.82-.6-.38-.11-.91-.16-1.57-.16h-1.56c-.46,0-.86,0-1.21,0-.35,0-.64.02-.88.04l-.25-1.24c.41-.05.8-.08,1.18-.1.37-.02.78-.03,1.22-.04.44,0,.96,0,1.57,0Zm-2.44.14v12.21h-1.52v-12.21h1.52Z"/>
    <path class="cls-2" d="m404.17,72.83l.19,1.65.14.26v6.71h-1.5v-8.62h1.17Zm4.23-.21l-.18,1.42h-.5c-.51,0-1.01.1-1.52.31-.51.21-1.13.5-1.86.88l-.12-.94c.64-.52,1.28-.93,1.92-1.22.64-.29,1.27-.44,1.87-.44h.39Z"/>
    <path class="cls-2" d="m416.42,76.14l-.02,1.13-4.12.02c-.41.01-.7.12-.87.33-.17.21-.25.49-.25.86v.55c0,.45.11.78.32.98.21.21.55.31,1.03.31.33,0,.7-.06,1.12-.19.42-.12.84-.32,1.26-.57.42-.26.81-.59,1.17-.99v1.11c-.13.17-.32.36-.56.58-.24.22-.53.43-.87.64-.34.21-.71.38-1.11.51-.41.13-.85.2-1.32.2-.51,0-.96-.09-1.34-.27-.39-.18-.69-.45-.91-.81-.22-.36-.33-.8-.33-1.32v-.94c0-.67.21-1.19.63-1.57.42-.37,1-.56,1.76-.56h4.41Zm-2.25-3.52c.64,0,1.18.08,1.62.26s.78.46,1,.86c.22.4.34.95.34,1.65v6.07h-1.19l-.23-1.88-.11-.19v-4c0-.53-.12-.91-.36-1.14-.24-.23-.7-.34-1.39-.34-.45,0-1.01.02-1.69.07-.68.05-1.35.1-2.01.16l-.14-1.11c.4-.07.84-.14,1.32-.19s.96-.11,1.46-.14c.5-.04.96-.05,1.38-.05Z"/>
    <path class="cls-2" d="m422.68,72.62c.38,0,.78.01,1.2.04.42.02.85.05,1.27.09.42.04.8.08,1.16.14l-.12,1.1c-.54-.02-1.09-.04-1.64-.06-.55-.02-1.09-.03-1.64-.03-.53-.01-.95,0-1.26.04s-.53.13-.66.28c-.14.15-.2.41-.2.78,0,.45.11.74.32.88.21.14.53.26.94.35l2.51.57c.68.17,1.19.42,1.51.76.32.34.49.88.49,1.61s-.13,1.24-.4,1.59c-.26.35-.67.59-1.21.71-.54.12-1.23.18-2.07.18-.31,0-.76-.01-1.37-.04s-1.28-.09-2.01-.21l.11-1.1c.28.01.58.03.9.04.32.02.65.03,1,.03h1.07c.65,0,1.16-.03,1.52-.09.37-.06.62-.17.78-.34s.23-.43.23-.77c0-.42-.12-.71-.37-.85s-.58-.26-.99-.35l-2.48-.57c-.47-.12-.85-.27-1.13-.47-.28-.2-.49-.45-.62-.76s-.19-.71-.19-1.18c0-.67.12-1.18.35-1.52.24-.34.6-.57,1.1-.69.5-.12,1.13-.17,1.91-.16Z"/>
    <path class="cls-2" d="m429.97,69.17c.31,0,.46.15.46.46v1.01c0,.31-.15.46-.46.46h-.71c-.31,0-.46-.15-.46-.46v-1.01c0-.31.15-.46.46-.46h.71Zm.39,3.66v8.62h-1.49v-8.62h1.49Z"/>
    <path class="cls-2" d="m434.71,69.06l-.02,10.01c0,.38.1.66.31.86.21.19.5.29.88.29h.83l.18,1.15c-.11.05-.26.09-.45.12-.19.04-.4.06-.6.08s-.38.03-.52.03c-.64,0-1.15-.19-1.53-.57-.38-.38-.58-.92-.58-1.63v-10.35h1.5Z"/>
  </g>
</svg>