<?xml version="1.0" encoding="UTF-8"?>
<svg id="Camada_1" data-name="Camada 1" xmlns="http://www.w3.org/2000/svg" viewBox="0 0 360 91">
  <defs>
    <style>
      .cls-1 {
        fill: #5f5d5b;
      }

      .cls-1, .cls-2 {
        stroke-width: 0px;
      }

      .cls-2 {
        fill: #f2f2f2;
      }
    </style>
  </defs>
  <rect class="cls-1" x="-640" y="-1152" width="2000" height="720" transform="translate(-432 -1152) rotate(90)"/>
  <g>
    <path class="cls-2" d="m154.06,38.06c1.19,0,2.11.27,2.77.81.65.54.98,1.44.98,2.72v7.71h-1.59l-.2-1.86c-.3.3-.7.61-1.21.93-.51.32-1.09.59-1.72.81-.64.21-1.3.32-2,.32-.65,0-1.21-.11-1.7-.33-.49-.22-.87-.55-1.14-.99-.27-.44-.41-.98-.41-1.62v-1.26c0-.79.24-1.42.72-1.87.48-.45,1.19-.68,2.13-.68h5.13v-1.07c0-.66-.15-1.13-.45-1.41-.3-.28-.86-.42-1.69-.42h-3.17c-1.08,0-1.93.05-2.58.15-.64.1-1.13.34-1.46.72-.33.38-.55.99-.66,1.82-.11.83-.16,1.99-.16,3.46,0,1.21.04,2.2.11,2.99s.22,1.4.43,1.85c.21.45.53.77.94.97.41.2.96.32,1.65.37.69.05,1.53.07,2.54.07h6.4v1.59c-1.06.07-2.12.12-3.17.15-1.06.03-2.12.05-3.2.05-1.39.02-2.55-.03-3.47-.14-.93-.11-1.67-.31-2.24-.62s-1-.76-1.28-1.35c-.28-.59-.47-1.38-.57-2.34-.1-.97-.15-2.16-.15-3.58s.04-2.55.12-3.5.25-1.7.51-2.28c.26-.58.64-1.02,1.14-1.33.5-.31,1.17-.51,2-.62.83-.11,1.86-.17,3.1-.19h3.55Zm1.76,5.95l-4.41.1c-.58.02-.99.14-1.23.36-.24.22-.36.58-.36,1.05v.64c0,.59.14,1.02.42,1.26.28.25.69.37,1.22.37.48,0,.98-.07,1.51-.2.53-.13,1.04-.32,1.54-.56.5-.24.93-.53,1.31-.88v-2.16Z"/>
    <path class="cls-2" d="m163.26,40.49l.15,2.31.22.37v9.4h-2.11v-12.08h1.74Zm5.06-.3c1.02,0,1.81.28,2.36.83.55.55.83,1.38.84,2.49v9.05h-2.03v-8.46c0-.78-.16-1.33-.47-1.65-.31-.32-.79-.48-1.41-.48-.41,0-.81.07-1.2.2-.39.13-.82.35-1.29.64-.47.3-1.05.7-1.72,1.19l-.15-1.49c.88-.78,1.73-1.36,2.55-1.75.83-.39,1.67-.58,2.53-.58Zm7.91,0c1.04,0,1.84.28,2.39.84.55.56.83,1.39.83,2.48v9.05h-2.08v-8.46c-.02-.74-.17-1.29-.45-1.62s-.76-.51-1.44-.51c-.43,0-.84.07-1.23.21-.39.14-.81.36-1.28.66-.46.3-1.03.69-1.69,1.17l-.12-1.49c.88-.78,1.73-1.36,2.55-1.75.83-.39,1.66-.58,2.5-.58Z"/>
    <path class="cls-2" d="m188.21,40.19c1.82,0,3.14.33,3.96.99.82.66,1.23,1.65,1.23,2.95.02,1.08-.21,1.91-.67,2.52s-1.2.91-2.21.91h-7.04v-1.64h6.5c.55,0,.9-.19,1.07-.56.17-.37.25-.78.25-1.23-.02-.78-.25-1.33-.69-1.66s-1.21-.5-2.28-.5c-.88,0-1.57.13-2.07.38-.5.26-.86.7-1.07,1.34-.21.64-.31,1.53-.31,2.67,0,1.29.13,2.27.38,2.95.26.68.67,1.14,1.23,1.39.56.25,1.31.37,2.23.37.65,0,1.35-.03,2.12-.09.77-.06,1.46-.13,2.07-.21l.22,1.41c-.38.15-.85.27-1.4.37-.55.1-1.12.17-1.71.22-.59.05-1.11.07-1.57.07-1.39,0-2.5-.21-3.35-.63s-1.46-1.1-1.85-2.03c-.39-.93-.58-2.17-.58-3.71s.19-2.84.58-3.76c.39-.92.99-1.57,1.81-1.96.82-.39,1.87-.58,3.16-.58Z"/>
    <path class="cls-2" d="m201.73,40.19c.36,0,.77.02,1.22.05.45.03.91.09,1.38.17.47.08.91.2,1.3.35l-.27,1.36c-.55-.05-1.12-.09-1.72-.11s-1.12-.04-1.55-.04c-.96,0-1.72.13-2.28.4-.56.26-.97.73-1.22,1.39-.25.66-.37,1.58-.37,2.75s.12,2.1.37,2.77.65,1.14,1.22,1.4c.56.26,1.32.4,2.28.4.25,0,.57,0,.97-.02.4-.02.82-.04,1.28-.07.45-.03.89-.08,1.3-.15l.22,1.41c-.61.21-1.28.37-2,.47-.72.1-1.43.15-2.15.15-1.39,0-2.5-.21-3.35-.62s-1.45-1.08-1.82-2.01c-.37-.93-.56-2.17-.56-3.72s.19-2.79.57-3.72.99-1.59,1.84-2c.84-.41,1.96-.61,3.35-.61Z"/>
    <path class="cls-2" d="m217.55,45.13l-.02,1.59-5.78.02c-.58.02-.98.17-1.22.46s-.35.69-.35,1.2v.77c0,.63.15,1.09.45,1.38.3.29.78.43,1.44.43.46,0,.99-.09,1.58-.26.59-.17,1.18-.44,1.77-.81.6-.36,1.14-.83,1.64-1.39v1.56c-.18.23-.44.5-.78.81-.34.31-.74.6-1.22.89s-.99.53-1.56.72c-.57.19-1.19.29-1.85.29-.71,0-1.34-.13-1.88-.38-.55-.26-.97-.64-1.28-1.14-.31-.5-.46-1.12-.46-1.85v-1.31c0-.94.29-1.67.88-2.2.59-.52,1.41-.78,2.47-.78h6.18Zm-3.15-4.94c.89,0,1.65.12,2.27.36.62.24,1.09.64,1.4,1.2.31.56.47,1.33.47,2.31v8.51h-1.66l-.32-2.63-.15-.27v-5.61c0-.74-.17-1.28-.51-1.6-.34-.32-.99-.48-1.95-.48-.63,0-1.42.03-2.37.1-.95.07-1.89.14-2.81.22l-.2-1.56c.56-.1,1.18-.19,1.85-.27.67-.08,1.35-.15,2.05-.2.69-.05,1.34-.08,1.93-.08Z"/>
    <path class="cls-2" d="m224.45,35.21l-.02,14.04c0,.53.14.93.43,1.2.29.27.7.41,1.23.41h1.17l.25,1.61c-.15.07-.36.12-.63.17s-.55.09-.84.11c-.29.03-.53.04-.73.04-.89,0-1.61-.26-2.15-.79s-.81-1.29-.81-2.28v-14.51h2.11Z"/>
    <path class="cls-2" d="m234.79,40.19c1.39,0,2.5.21,3.34.62.83.41,1.43,1.09,1.8,2.02.36.93.55,2.17.55,3.71s-.18,2.77-.55,3.71c-.36.93-.96,1.61-1.8,2.02s-1.95.62-3.34.62-2.48-.21-3.31-.62-1.44-1.09-1.81-2.02c-.37-.93-.56-2.17-.56-3.71s.19-2.77.56-3.71c.37-.93.98-1.61,1.81-2.02.83-.41,1.94-.62,3.31-.62Zm0,1.79c-.88,0-1.57.14-2.07.41-.5.27-.86.74-1.08,1.4s-.32,1.58-.32,2.75.11,2.09.32,2.75.57,1.13,1.08,1.4c.5.27,1.19.41,2.07.41s1.57-.14,2.08-.41c.51-.27.88-.74,1.09-1.4s.32-1.58.32-2.75-.11-2.09-.32-2.75-.58-1.13-1.09-1.4-1.21-.41-2.08-.41Z"/>
    <path class="cls-2" d="m245.55,40.49l.17,2.31.15.37v9.4h-2.11v-12.08h1.79Zm5.56-.3c2.18,0,3.27,1.11,3.27,3.32v9.05h-2.11v-8.46c0-.81-.13-1.37-.4-1.67-.26-.31-.71-.46-1.34-.46-.74,0-1.49.18-2.23.55-.74.36-1.63.86-2.65,1.49l-.1-1.51c.94-.73,1.88-1.29,2.8-1.7.93-.41,1.84-.61,2.75-.61Z"/>
    <path class="cls-2" d="m259.81,35.36c.43,0,.65.22.65.65v1.41c0,.43-.22.64-.65.64h-.99c-.43,0-.64-.21-.64-.64v-1.41c0-.43.21-.65.64-.65h.99Zm.55,5.13v12.08h-2.08v-12.08h2.08Z"/>
    <path class="cls-2" d="m273.18,45.13l-.02,1.59-5.78.02c-.58.02-.98.17-1.22.46s-.35.69-.35,1.2v.77c0,.63.15,1.09.45,1.38.3.29.78.43,1.44.43.46,0,.99-.09,1.58-.26.59-.17,1.18-.44,1.77-.81.6-.36,1.14-.83,1.64-1.39v1.56c-.18.23-.44.5-.78.81-.34.31-.74.6-1.22.89s-.99.53-1.56.72c-.57.19-1.19.29-1.85.29-.71,0-1.34-.13-1.88-.38-.55-.26-.97-.64-1.28-1.14-.31-.5-.46-1.12-.46-1.85v-1.31c0-.94.29-1.67.88-2.2.59-.52,1.41-.78,2.47-.78h6.18Zm-3.15-4.94c.89,0,1.65.12,2.27.36.62.24,1.09.64,1.4,1.2.31.56.47,1.33.47,2.31v8.51h-1.66l-.32-2.63-.15-.27v-5.61c0-.74-.17-1.28-.51-1.6-.34-.32-.99-.48-1.95-.48-.63,0-1.42.03-2.37.1-.95.07-1.89.14-2.81.22l-.2-1.56c.56-.1,1.18-.19,1.85-.27.67-.08,1.35-.15,2.05-.2.69-.05,1.34-.08,1.93-.08Z"/>
  </g>
  <g>
    <path class="cls-2" d="m106.43,40.71c-2.64,0-4.79,2.15-4.79,4.79s2.15,4.79,4.79,4.79,4.79-2.15,4.79-4.79-2.15-4.79-4.79-4.79Z"/>
    <path class="cls-2" d="m112.36,33.18h-12.11c-3.45,0-6.26,2.81-6.26,6.26v12.12c0,3.45,2.81,6.26,6.26,6.26h12.11c3.45,0,6.26-2.81,6.26-6.26v-12.12c0-3.45-2.81-6.26-6.26-6.26Zm-5.93,19.79c-4.12,0-7.47-3.35-7.47-7.47s3.35-7.47,7.47-7.47,7.47,3.35,7.47,7.47-3.35,7.47-7.47,7.47Zm7.91-13.67c-.98,0-1.78-.8-1.78-1.78s.8-1.78,1.78-1.78,1.78.8,1.78,1.78-.8,1.78-1.78,1.78Z"/>
    <path class="cls-2" d="m115.52,23.19h-18.42c-7.24,0-13.1,5.87-13.1,13.1v18.42c0,7.24,5.87,13.1,13.1,13.1h18.42c7.24,0,13.1-5.87,13.1-13.1v-18.42c0-7.24-5.87-13.1-13.1-13.1Zm5.96,28.37c0,5.03-4.09,9.11-9.12,9.11h-12.11c-5.03,0-9.11-4.09-9.11-9.11v-12.12c0-5.03,4.09-9.11,9.11-9.11h12.11c5.03,0,9.12,4.09,9.12,9.11v12.12Z"/>
  </g>
</svg>