<?xml version="1.0" encoding="UTF-8"?>
<svg id="Camada_1" data-name="Camada 1" xmlns="http://www.w3.org/2000/svg" xmlns:xlink="http://www.w3.org/1999/xlink" viewBox="0 0 720 101">
  <defs>
    <style>
      .cls-1 {
        fill: #fff;
      }

      .cls-1, .cls-2, .cls-3 {
        stroke-width: 0px;
      }

      .cls-2 {
        fill: #5f5d5b;
      }

      .cls-3 {
        fill: url(#Gradiente_sem_nome_3);
      }
    </style>
    <linearGradient id="Gradiente_sem_nome_3" data-name="Gradiente sem nome 3" x1="207.77" y1="51" x2="512.23" y2="51" gradientUnits="userSpaceOnUse">
      <stop offset="0" stop-color="#ffbb14"/>
      <stop offset="1" stop-color="#ef9913"/>
    </linearGradient>
  </defs>
  <rect class="cls-2" x="-640" y="-1051" width="2000" height="720" transform="translate(-331 -1051) rotate(90)"/>
  <rect class="cls-3" x="207.77" y="19" width="304.46" height="64" rx="32" ry="32"/>
  <g>
    <path class="cls-1" d="m242.59,38.3c1.12,0,2.26,0,3.42.02,1.16.01,2.3.04,3.42.08,1.12.04,2.17.11,3.14.21l-.21,3.38h-8.08c-.51,0-.89.13-1.14.38-.25.25-.38.65-.38,1.17v10.73c0,.51.13.89.38,1.16.25.26.63.4,1.14.4h8.08l.21,3.38c-.98.08-2.02.14-3.14.18-1.12.04-2.26.07-3.42.08-1.16,0-2.3.01-3.42.01-1.34,0-2.42-.39-3.25-1.16s-1.25-1.79-1.27-3.05v-12.75c.02-1.28.44-2.31,1.27-3.08s1.91-1.16,3.25-1.16Zm-3.96,8.54h12.59v3.29h-12.59v-3.29Z"/>
    <path class="cls-1" d="m259.21,44.37l.52,2.99.37.4v11.68h-4.48v-15.06h3.6Zm6.86-.4c2.85,0,4.27,1.39,4.27,4.18v11.28h-4.51v-9.88c0-.67-.12-1.13-.37-1.39-.24-.25-.66-.38-1.25-.38-.65,0-1.32.13-2.01.38-.69.25-1.55.64-2.56,1.14l-.21-2.5c1.08-.92,2.18-1.62,3.31-2.1,1.13-.49,2.24-.73,3.34-.73Z"/>
    <path class="cls-1" d="m284,44.37v2.96h-11.34v-2.8l2.93-.15h8.42Zm-4.21-4.18v14.42c0,.55.13.94.38,1.17.25.23.68.35,1.27.35h1.95l.49,3.05c-.37.12-.81.23-1.34.32-.53.09-1.06.16-1.59.2-.53.04-.98.06-1.34.06-1.36,0-2.42-.36-3.19-1.08s-1.14-1.74-1.14-3.06v-15.43h4.51Z"/>
    <path class="cls-1" d="m289.95,44.37l.55,2.99.43.4v11.68h-4.48v-15.06h3.51Zm7.35-.4l-.43,4.15h-1.25c-.71,0-1.45.1-2.23.3-.77.2-1.75.52-2.93.95l-.3-2.53c1.06-.93,2.12-1.65,3.2-2.13,1.08-.49,2.12-.73,3.14-.73h.79Z"/>
    <path class="cls-1" d="m306.32,43.97c2.54,0,4.37.43,5.47,1.3,1.11.86,1.66,2.15,1.66,3.86.02,1.36-.33,2.39-1.04,3.08-.71.69-1.94,1.04-3.69,1.04h-8.42v-2.53h7.2c.67,0,1.1-.15,1.3-.44.19-.29.29-.71.29-1.23,0-.71-.2-1.21-.59-1.48-.4-.27-1.07-.41-2.03-.41-.83-.02-1.48.09-1.95.32-.47.23-.79.67-.98,1.3-.18.63-.27,1.54-.27,2.74,0,1.26.11,2.23.34,2.91.22.68.6,1.15,1.14,1.42.54.26,1.29.4,2.24.4.69,0,1.55-.03,2.58-.08,1.03-.05,2.06-.14,3.09-.26l.43,2.77c-.59.29-1.26.51-2.01.67-.75.16-1.52.28-2.32.35-.79.07-1.56.11-2.29.11-1.91,0-3.45-.28-4.6-.84s-2-1.42-2.52-2.58c-.52-1.16-.78-2.64-.78-4.45,0-1.97.26-3.54.78-4.7.52-1.16,1.35-1.99,2.49-2.5,1.14-.51,2.63-.76,4.48-.76Z"/>
    <path class="cls-1" d="m330.13,43.97c2.54,0,4.37.43,5.47,1.3,1.11.86,1.66,2.15,1.66,3.86.02,1.36-.33,2.39-1.04,3.08-.71.69-1.94,1.04-3.69,1.04h-8.42v-2.53h7.2c.67,0,1.1-.15,1.3-.44.19-.29.29-.71.29-1.23,0-.71-.2-1.21-.59-1.48-.4-.27-1.07-.41-2.03-.41-.83-.02-1.48.09-1.95.32-.47.23-.79.67-.98,1.3-.18.63-.27,1.54-.27,2.74,0,1.26.11,2.23.34,2.91.22.68.6,1.15,1.14,1.42.54.26,1.29.4,2.24.4.69,0,1.55-.03,2.58-.08,1.03-.05,2.06-.14,3.09-.26l.43,2.77c-.59.29-1.26.51-2.01.67-.75.16-1.52.28-2.32.35-.79.07-1.56.11-2.29.11-1.91,0-3.45-.28-4.6-.84s-2-1.42-2.52-2.58c-.52-1.16-.78-2.64-.78-4.45,0-1.97.26-3.54.78-4.7.52-1.16,1.35-1.99,2.49-2.5,1.14-.51,2.63-.76,4.48-.76Z"/>
    <path class="cls-1" d="m343.79,44.37l.46,2.99.46.4v11.68h-4.48v-15.06h3.57Zm6.1-.4c1.34,0,2.36.35,3.06,1.05s1.05,1.74,1.05,3.12v11.28h-4.33v-9.88c0-.65-.14-1.11-.41-1.37-.27-.26-.7-.4-1.27-.4-.35,0-.69.04-1.02.14s-.72.25-1.16.47-.97.53-1.6.92l-.27-2.47c1-.96,1.96-1.67,2.9-2.15.94-.48,1.95-.72,3.05-.72Zm9.39,0c1.36,0,2.4.36,3.11,1.07s1.07,1.75,1.07,3.11v11.28h-4.45v-9.88c-.02-.63-.15-1.08-.4-1.36-.24-.27-.67-.41-1.28-.41-.35,0-.69.04-1.02.14s-.72.25-1.14.47-.95.53-1.56.92l-.24-2.47c.98-.96,1.94-1.67,2.88-2.15.95-.48,1.96-.72,3.03-.72Z"/>
    <path class="cls-1" d="m380.69,43.97c.55,0,1.15.03,1.8.08s1.31.14,1.97.27c.66.13,1.27.32,1.81.56l-.49,2.84c-.81-.04-1.59-.07-2.33-.08-.74,0-1.41-.01-2-.01-.91,0-1.64.12-2.16.37-.53.24-.91.67-1.14,1.28-.23.61-.35,1.47-.35,2.59s.12,1.99.35,2.62c.23.63.61,1.07,1.14,1.31.53.24,1.25.37,2.16.37.33,0,.74,0,1.25-.03.51-.02,1.06-.05,1.65-.08.59-.03,1.17-.09,1.74-.17l.43,2.87c-.81.37-1.74.63-2.77.79-1.04.16-2.06.24-3.08.24-1.85,0-3.33-.26-4.45-.78-1.12-.52-1.92-1.36-2.41-2.51-.49-1.16-.73-2.7-.73-4.63s.25-3.48.75-4.63c.5-1.16,1.31-1.99,2.42-2.5,1.12-.51,2.6-.76,4.45-.76Z"/>
    <path class="cls-1" d="m396.18,43.97c1.89,0,3.4.26,4.54.78s1.96,1.36,2.46,2.52c.5,1.16.75,2.71.75,4.67s-.25,3.45-.75,4.6c-.5,1.16-1.32,1.99-2.46,2.5s-2.65.76-4.54.76-3.38-.25-4.51-.76c-1.14-.51-1.96-1.34-2.47-2.5-.51-1.16-.76-2.69-.76-4.6s.25-3.51.76-4.67c.51-1.16,1.33-2,2.47-2.52,1.14-.52,2.64-.78,4.51-.78Zm0,3.26c-.77,0-1.38.13-1.83.4-.45.26-.76.73-.95,1.4-.18.67-.27,1.64-.27,2.9s.09,2.17.27,2.84c.18.67.5,1.13.95,1.39.45.25,1.06.38,1.83.38s1.41-.13,1.86-.38c.45-.25.76-.72.93-1.39.17-.67.26-1.62.26-2.84s-.09-2.23-.26-2.9c-.17-.67-.48-1.14-.93-1.4-.45-.26-1.07-.4-1.86-.4Z"/>
    <path class="cls-1" d="m410.63,44.37l.52,2.99.37.4v11.68h-4.48v-15.06h3.6Zm6.86-.4c2.85,0,4.27,1.39,4.27,4.18v11.28h-4.51v-9.88c0-.67-.12-1.13-.37-1.39s-.66-.38-1.25-.38c-.65,0-1.32.13-2.01.38-.69.25-1.54.64-2.56,1.14l-.21-2.5c1.08-.92,2.18-1.62,3.31-2.1,1.13-.49,2.24-.73,3.34-.73Z"/>
    <path class="cls-1" d="m435.42,44.37v2.96h-11.34v-2.8l2.93-.15h8.42Zm-4.21-4.18v14.42c0,.55.13.94.38,1.17.25.23.68.35,1.27.35h1.95l.49,3.05c-.37.12-.81.23-1.34.32-.53.09-1.06.16-1.59.2-.53.04-.98.06-1.34.06-1.36,0-2.42-.36-3.19-1.08-.76-.72-1.14-1.74-1.14-3.06v-15.43h4.51Z"/>
    <path class="cls-1" d="m449.81,50.16l-.03,2.53h-6.71c-.55.02-.94.16-1.17.43-.23.26-.35.62-.35,1.07v.73c0,.51.14.9.43,1.17.28.27.74.41,1.37.41.53,0,1.1-.11,1.72-.34s1.24-.54,1.84-.95c.61-.41,1.16-.88,1.65-1.43v1.95c-.18.3-.46.69-.82,1.14-.37.46-.82.9-1.37,1.34s-1.19.8-1.92,1.1c-.73.29-1.57.44-2.5.44s-1.71-.16-2.46-.47c-.74-.31-1.33-.79-1.75-1.42s-.64-1.41-.64-2.35v-1.55c0-1.2.41-2.13,1.22-2.81.81-.67,1.93-1.01,3.35-1.01h8.14Zm-4.02-6.19c1.26,0,2.33.17,3.2.5.87.33,1.54.9,2,1.71.46.8.69,1.9.69,3.28v9.97h-3.57l-.64-3.26-.3-.46v-6.25c-.02-.73-.2-1.25-.53-1.57-.33-.32-.96-.47-1.88-.47-.79,0-1.77.03-2.93.08-1.16.05-2.35.12-3.57.2l-.4-2.99c.73-.14,1.57-.26,2.52-.37.94-.1,1.89-.19,2.85-.26.96-.07,1.81-.11,2.56-.11Z"/>
    <path class="cls-1" d="m465.3,44.37v2.96h-11.34v-2.8l2.93-.15h8.42Zm-4.21-4.18v14.42c0,.55.13.94.38,1.17.25.23.68.35,1.27.35h1.95l.49,3.05c-.37.12-.81.23-1.34.32-.53.09-1.06.16-1.59.2-.53.04-.98.06-1.34.06-1.36,0-2.42-.36-3.19-1.08-.76-.72-1.14-1.74-1.14-3.06v-15.43h4.51Z"/>
    <path class="cls-1" d="m474.88,43.97c1.89,0,3.4.26,4.54.78s1.96,1.36,2.46,2.52c.5,1.16.75,2.71.75,4.67s-.25,3.45-.75,4.6c-.5,1.16-1.32,1.99-2.46,2.5s-2.65.76-4.54.76-3.38-.25-4.51-.76c-1.14-.51-1.96-1.34-2.47-2.5-.51-1.16-.76-2.69-.76-4.6s.25-3.51.76-4.67c.51-1.16,1.33-2,2.47-2.52,1.14-.52,2.64-.78,4.51-.78Zm0,3.26c-.77,0-1.38.13-1.83.4-.45.26-.76.73-.95,1.4-.18.67-.27,1.64-.27,2.9s.09,2.17.27,2.84c.18.67.5,1.13.95,1.39.45.25,1.06.38,1.83.38s1.41-.13,1.86-.38c.45-.25.76-.72.93-1.39.17-.67.26-1.62.26-2.84s-.09-2.23-.26-2.9c-.17-.67-.48-1.14-.93-1.4-.45-.26-1.07-.4-1.86-.4Z"/>
  </g>
</svg>