<?xml version="1.0" encoding="UTF-8"?>
<svg id="Camada_1" data-name="Camada 1" xmlns="http://www.w3.org/2000/svg" viewBox="0 0 360 91">
  <defs>
    <style>
      .cls-1 {
        fill: #5f5d5b;
      }

      .cls-1, .cls-2 {
        stroke-width: 0px;
      }

      .cls-2 {
        fill: #f2f2f2;
      }
    </style>
  </defs>
  <rect class="cls-1" x="-1000" y="-1152" width="2000" height="720" transform="translate(-792 -792) rotate(90)"/>
  <g>
    <path class="cls-2" d="m153.8,35.46l-9.75,18.75h-1.74l9.75-18.75h1.74Z"/>
    <path class="cls-2" d="m157.38,40.49l.15,2.31.22.37v9.4h-2.11v-12.08h1.74Zm5.06-.3c1.02,0,1.81.28,2.36.83.55.55.83,1.38.84,2.49v9.05h-2.03v-8.46c0-.78-.16-1.33-.47-1.65-.31-.32-.79-.48-1.41-.48-.41,0-.81.07-1.2.2-.39.13-.82.35-1.29.64-.47.3-1.05.7-1.72,1.19l-.15-1.49c.88-.78,1.73-1.36,2.55-1.75.83-.39,1.67-.58,2.53-.58Zm7.91,0c1.04,0,1.84.28,2.39.84.55.56.83,1.39.83,2.48v9.05h-2.08v-8.46c-.02-.74-.17-1.29-.45-1.62s-.76-.51-1.44-.51c-.43,0-.84.07-1.23.21-.39.14-.81.36-1.28.66s-1.03.69-1.69,1.17l-.12-1.49c.88-.78,1.73-1.36,2.55-1.75.83-.39,1.66-.58,2.5-.58Z"/>
    <path class="cls-2" d="m182.33,40.19c1.82,0,3.14.33,3.96.99.82.66,1.23,1.65,1.23,2.95.02,1.08-.21,1.91-.67,2.52s-1.2.91-2.21.91h-7.04v-1.64h6.5c.55,0,.9-.19,1.07-.56.17-.37.25-.78.25-1.23-.02-.78-.25-1.33-.69-1.66s-1.21-.5-2.28-.5c-.88,0-1.57.13-2.07.38-.5.26-.86.7-1.07,1.34-.21.64-.31,1.53-.31,2.67,0,1.29.13,2.27.38,2.95.26.68.67,1.14,1.23,1.39.56.25,1.31.37,2.23.37.64,0,1.35-.03,2.12-.09.77-.06,1.46-.13,2.07-.21l.22,1.41c-.38.15-.85.27-1.4.37s-1.12.17-1.71.22c-.59.05-1.11.07-1.58.07-1.39,0-2.5-.21-3.35-.63-.84-.42-1.46-1.1-1.85-2.03-.39-.93-.58-2.17-.58-3.71s.19-2.84.58-3.76c.39-.92.99-1.57,1.81-1.96.82-.39,1.87-.58,3.16-.58Z"/>
    <path class="cls-2" d="m195.84,40.19c.36,0,.77.02,1.22.05.45.03.91.09,1.38.17.47.08.91.2,1.3.35l-.27,1.36c-.54-.05-1.12-.09-1.72-.11s-1.12-.04-1.55-.04c-.96,0-1.72.13-2.28.4-.56.26-.97.73-1.22,1.39-.25.66-.37,1.58-.37,2.75s.12,2.1.37,2.77.65,1.14,1.22,1.4c.56.26,1.32.4,2.28.4.25,0,.57,0,.97-.02.4-.02.82-.04,1.28-.07s.89-.08,1.3-.15l.22,1.41c-.61.21-1.28.37-2,.47-.72.1-1.43.15-2.15.15-1.39,0-2.5-.21-3.35-.62-.84-.41-1.45-1.08-1.82-2.01s-.56-2.17-.56-3.72.19-2.79.57-3.72c.38-.93.99-1.59,1.83-2s1.96-.61,3.35-.61Z"/>
    <path class="cls-2" d="m211.66,45.13l-.02,1.59-5.78.02c-.58.02-.98.17-1.21.46s-.35.69-.35,1.2v.77c0,.63.15,1.09.45,1.38.3.29.78.43,1.44.43.46,0,.99-.09,1.58-.26s1.18-.44,1.77-.81c.59-.36,1.14-.83,1.64-1.39v1.56c-.18.23-.44.5-.78.81s-.74.6-1.21.89c-.47.29-.99.53-1.56.72-.57.19-1.19.29-1.85.29-.71,0-1.34-.13-1.88-.38-.55-.26-.97-.64-1.28-1.14-.31-.5-.46-1.12-.46-1.85v-1.31c0-.94.29-1.67.88-2.2.59-.52,1.41-.78,2.47-.78h6.18Zm-3.15-4.94c.89,0,1.65.12,2.27.36.62.24,1.09.64,1.4,1.2.31.56.47,1.33.47,2.31v8.51h-1.66l-.32-2.63-.15-.27v-5.61c0-.74-.17-1.28-.51-1.6s-.99-.48-1.95-.48c-.63,0-1.42.03-2.37.1-.95.07-1.89.14-2.81.22l-.2-1.56c.56-.1,1.18-.19,1.85-.27.67-.08,1.35-.15,2.05-.2.69-.05,1.34-.08,1.93-.08Z"/>
    <path class="cls-2" d="m218.56,35.21l-.03,14.04c0,.53.14.93.43,1.2.29.27.7.41,1.23.41h1.17l.25,1.61c-.15.07-.36.12-.63.17-.27.05-.55.09-.84.11-.29.03-.53.04-.73.04-.89,0-1.61-.26-2.15-.79s-.81-1.29-.81-2.28v-14.51h2.11Z"/>
    <path class="cls-2" d="m228.9,40.19c1.39,0,2.5.21,3.33.62.83.41,1.43,1.09,1.8,2.02.36.93.54,2.17.54,3.71s-.18,2.77-.54,3.71c-.36.93-.96,1.61-1.8,2.02s-1.95.62-3.33.62-2.48-.21-3.31-.62-1.44-1.09-1.81-2.02c-.37-.93-.56-2.17-.56-3.71s.19-2.77.56-3.71c.37-.93.98-1.61,1.81-2.02.83-.41,1.94-.62,3.31-.62Zm0,1.79c-.88,0-1.57.14-2.07.41-.5.27-.86.74-1.08,1.4s-.32,1.58-.32,2.75.11,2.09.32,2.75.57,1.13,1.08,1.4c.5.27,1.19.41,2.07.41s1.57-.14,2.08-.41c.51-.27.88-.74,1.09-1.4s.32-1.58.32-2.75-.11-2.09-.32-2.75-.58-1.13-1.09-1.4-1.21-.41-2.08-.41Z"/>
    <path class="cls-2" d="m239.66,40.49l.17,2.31.15.37v9.4h-2.11v-12.08h1.79Zm5.55-.3c2.18,0,3.27,1.11,3.27,3.32v9.05h-2.11v-8.46c0-.81-.13-1.37-.4-1.67-.26-.31-.71-.46-1.34-.46-.74,0-1.49.18-2.23.55-.74.36-1.63.86-2.65,1.49l-.1-1.51c.94-.73,1.88-1.29,2.8-1.7s1.84-.61,2.75-.61Z"/>
    <path class="cls-2" d="m253.92,35.36c.43,0,.64.22.64.65v1.41c0,.43-.21.64-.64.64h-.99c-.43,0-.64-.21-.64-.64v-1.41c0-.43.21-.65.64-.65h.99Zm.54,5.13v12.08h-2.08v-12.08h2.08Z"/>
    <path class="cls-2" d="m267.29,45.13l-.02,1.59-5.78.02c-.58.02-.98.17-1.21.46s-.35.69-.35,1.2v.77c0,.63.15,1.09.45,1.38.3.29.78.43,1.44.43.46,0,.99-.09,1.58-.26s1.18-.44,1.77-.81c.59-.36,1.14-.83,1.64-1.39v1.56c-.18.23-.44.5-.78.81s-.74.6-1.21.89c-.47.29-.99.53-1.56.72-.57.19-1.19.29-1.85.29-.71,0-1.34-.13-1.88-.38-.55-.26-.97-.64-1.28-1.14-.31-.5-.46-1.12-.46-1.85v-1.31c0-.94.29-1.67.88-2.2.59-.52,1.41-.78,2.47-.78h6.18Zm-3.15-4.94c.89,0,1.65.12,2.27.36.62.24,1.09.64,1.4,1.2.31.56.47,1.33.47,2.31v8.51h-1.66l-.32-2.63-.15-.27v-5.61c0-.74-.17-1.28-.51-1.6s-.99-.48-1.95-.48c-.63,0-1.42.03-2.37.1-.95.07-1.89.14-2.81.22l-.2-1.56c.56-.1,1.18-.19,1.85-.27.67-.08,1.35-.15,2.05-.2.69-.05,1.34-.08,1.93-.08Z"/>
  </g>
  <path class="cls-2" d="m119.61,24.46h-17.37c-6.82,0-12.35,5.53-12.35,12.35v17.37c0,6.82,5.53,12.35,12.35,12.35h17.37c6.82,0,12.35-5.53,12.35-12.35v-17.37c0-6.82-5.53-12.35-12.35-12.35Zm-15.26,32.29c-1.35-.01-2.71-.01-4.06,0-.22,0-.28-.05-.28-.28,0-4.83,0-9.65,0-14.48,0-.2.05-.27.26-.27,1.37,0,2.75.01,4.12,0,.26,0,.3.1.3.33,0,2.4,0,4.81,0,7.21s0,4.77,0,7.15c0,.26-.07.35-.34.34Zm-2-17.09c-1.47,0-2.7-1.22-2.7-2.69,0-1.49,1.22-2.72,2.71-2.71,1.48,0,2.7,1.22,2.7,2.69,0,1.5-1.21,2.72-2.71,2.72Zm19.86,16.78c0,.25-.07.31-.31.31-1.35-.01-2.71-.01-4.06,0-.24,0-.29-.07-.29-.3,0-2.5,0-5,0-7.51,0-.63-.04-1.25-.22-1.86-.32-1.12-1.13-1.7-2.3-1.63-1.61.08-2.44.88-2.65,2.51-.05.39-.07.78-.07,1.17,0,2.43,0,4.87,0,7.3,0,.24-.06.31-.31.31-1.36-.01-2.73-.01-4.09,0-.22,0-.28-.06-.28-.28,0-4.82,0-9.64,0-14.46,0-.24.08-.29.3-.29,1.3,0,2.59.01,3.89,0,.24,0,.3.08.29.3-.01.58,0,1.15,0,1.73.31-.35.57-.71.89-1.01.99-.93,2.15-1.4,3.52-1.39.75,0,1.49.06,2.21.27,1.65.48,2.61,1.62,3.07,3.23.34,1.21.41,2.45.41,3.7,0,2.63,0,5.26,0,7.89Z"/>
</svg>